<?xml version="1.0" encoding="UTF-8"?>
<svg xmlns="http://www.w3.org/2000/svg" width="1920" height="838" viewBox="0 0 1920 838" fill="none">
  <g clip-path="url(#clip0_3028_2932)">
    <path d="M1920 0H0V838H1920V0Z" fill="url(#paint0_linear_3028_2932)"></path>
    <path d="M1547.93 507.687C1546.38 507.687 1545.09 506.394 1545.09 504.843C1545.09 503.292 1546.38 502 1547.93 502C1549.49 502 1550.78 503.292 1550.78 504.843C1550.78 506.394 1549.49 507.687 1547.93 507.687Z" fill="white"></path>
    <path d="M1547.93 524.487C1546.38 524.487 1545.09 523.195 1545.09 521.644C1545.09 520.093 1546.38 518.801 1547.93 518.801C1549.49 518.801 1550.78 520.093 1550.78 521.644C1550.78 523.195 1549.49 524.487 1547.93 524.487Z" fill="white"></path>
    <path d="M1547.93 541.288C1546.38 541.288 1545.09 539.996 1545.09 538.445C1545.09 536.894 1546.38 535.602 1547.93 535.602C1549.49 535.602 1550.78 536.894 1550.78 538.445C1550.78 539.996 1549.49 541.288 1547.93 541.288Z" fill="white"></path>
    <path d="M1547.93 557.96C1546.38 557.96 1545.09 556.668 1545.09 555.117C1545.09 553.566 1546.38 552.273 1547.93 552.273C1549.49 552.273 1550.78 553.566 1550.78 555.117C1550.78 556.668 1549.49 557.96 1547.93 557.96Z" fill="white"></path>
    <path d="M1564.63 507.687C1563.07 507.687 1561.78 506.394 1561.78 504.843C1561.78 503.292 1563.07 502 1564.63 502C1566.18 502 1567.47 503.292 1567.47 504.843C1567.47 506.394 1566.18 507.687 1564.63 507.687Z" fill="white"></path>
    <path d="M1564.63 524.487C1563.07 524.487 1561.78 523.195 1561.78 521.644C1561.78 520.093 1563.07 518.801 1564.63 518.801C1566.18 518.801 1567.47 520.093 1567.47 521.644C1567.47 523.195 1566.18 524.487 1564.63 524.487Z" fill="white"></path>
    <path d="M1564.63 541.288C1563.07 541.288 1561.78 539.996 1561.78 538.445C1561.78 536.894 1563.07 535.602 1564.63 535.602C1566.18 535.602 1567.47 536.894 1567.47 538.445C1567.47 539.996 1566.18 541.288 1564.63 541.288Z" fill="white"></path>
    <path d="M1564.63 557.96C1563.07 557.96 1561.78 556.668 1561.78 555.117C1561.78 553.566 1563.07 552.273 1564.63 552.273C1566.18 552.273 1567.47 553.566 1567.47 555.117C1567.47 556.668 1566.18 557.96 1564.63 557.96Z" fill="white"></path>
    <path d="M1581.45 507.687C1579.9 507.687 1578.6 506.394 1578.6 504.843C1578.6 503.292 1579.9 502 1581.45 502C1583 502 1584.3 503.292 1584.3 504.843C1584.3 506.394 1583 507.687 1581.45 507.687Z" fill="white"></path>
    <path d="M1581.45 524.487C1579.9 524.487 1578.6 523.195 1578.6 521.644C1578.6 520.093 1579.9 518.801 1581.45 518.801C1583 518.801 1584.3 520.093 1584.3 521.644C1584.3 523.195 1583 524.487 1581.45 524.487Z" fill="white"></path>
    <path d="M1581.45 541.288C1579.9 541.288 1578.6 539.996 1578.6 538.445C1578.6 536.894 1579.9 535.602 1581.45 535.602C1583 535.602 1584.3 536.894 1584.3 538.445C1584.3 539.996 1583 541.288 1581.45 541.288Z" fill="white"></path>
    <path d="M1581.45 557.96C1579.9 557.96 1578.6 556.668 1578.6 555.117C1578.6 553.566 1579.9 552.273 1581.45 552.273C1583 552.273 1584.3 553.566 1584.3 555.117C1584.3 556.668 1583 557.96 1581.45 557.96Z" fill="white"></path>
    <path d="M1598.14 507.687C1596.59 507.687 1595.3 506.394 1595.3 504.843C1595.3 503.292 1596.59 502 1598.14 502C1599.7 502 1600.99 503.292 1600.99 504.843C1601.12 506.394 1599.83 507.687 1598.14 507.687Z" fill="white"></path>
    <path d="M1598.14 524.487C1596.59 524.487 1595.3 523.195 1595.3 521.644C1595.3 520.093 1596.59 518.801 1598.14 518.801C1599.7 518.801 1600.99 520.093 1600.99 521.644C1601.12 523.195 1599.83 524.487 1598.14 524.487Z" fill="white"></path>
    <path d="M1598.14 541.288C1596.59 541.288 1595.3 539.996 1595.3 538.445C1595.3 536.894 1596.59 535.602 1598.14 535.602C1599.7 535.602 1600.99 536.894 1600.99 538.445C1601.12 539.996 1599.83 541.288 1598.14 541.288Z" fill="white"></path>
    <path d="M1598.14 557.96C1596.59 557.96 1595.3 556.668 1595.3 555.117C1595.3 553.566 1596.59 552.273 1598.14 552.273C1599.7 552.273 1600.99 553.566 1600.99 555.117C1600.99 556.668 1599.83 557.96 1598.14 557.96Z" fill="white"></path>
    <path d="M1479.85 507.687C1478.29 507.687 1477 506.394 1477 504.843C1477 503.292 1478.29 502 1479.85 502C1481.4 502 1482.69 503.292 1482.69 504.843C1482.69 506.394 1481.4 507.687 1479.85 507.687Z" fill="white"></path>
    <path d="M1479.85 524.487C1478.29 524.487 1477 523.195 1477 521.644C1477 520.093 1478.29 518.801 1479.85 518.801C1481.4 518.801 1482.69 520.093 1482.69 521.644C1482.69 523.195 1481.4 524.487 1479.85 524.487Z" fill="white"></path>
    <path d="M1479.85 541.288C1478.29 541.288 1477 539.996 1477 538.445C1477 536.894 1478.29 535.602 1479.85 535.602C1481.4 535.602 1482.69 536.894 1482.69 538.445C1482.69 539.996 1481.4 541.288 1479.85 541.288Z" fill="white"></path>
    <path d="M1479.85 557.96C1478.29 557.96 1477 556.668 1477 555.117C1477 553.566 1478.29 552.273 1479.85 552.273C1481.4 552.273 1482.69 553.566 1482.69 555.117C1482.69 556.668 1481.4 557.96 1479.85 557.96Z" fill="white"></path>
    <path d="M1496.54 507.687C1494.99 507.687 1493.69 506.394 1493.69 504.843C1493.69 503.292 1494.99 502 1496.54 502C1498.09 502 1499.39 503.292 1499.39 504.843C1499.39 506.394 1498.09 507.687 1496.54 507.687Z" fill="white"></path>
    <path d="M1496.54 524.487C1494.99 524.487 1493.69 523.195 1493.69 521.644C1493.69 520.093 1494.99 518.801 1496.54 518.801C1498.09 518.801 1499.39 520.093 1499.39 521.644C1499.39 523.195 1498.09 524.487 1496.54 524.487Z" fill="white"></path>
    <path d="M1496.54 541.288C1494.99 541.288 1493.69 539.996 1493.69 538.445C1493.69 536.894 1494.99 535.602 1496.54 535.602C1498.09 535.602 1499.39 536.894 1499.39 538.445C1499.39 539.996 1498.09 541.288 1496.54 541.288Z" fill="white"></path>
    <path d="M1496.54 557.96C1494.99 557.96 1493.69 556.668 1493.69 555.117C1493.69 553.566 1494.99 552.273 1496.54 552.273C1498.09 552.273 1499.39 553.566 1499.39 555.117C1499.39 556.668 1498.09 557.96 1496.54 557.96Z" fill="white"></path>
    <path d="M1513.37 507.687C1511.81 507.687 1510.52 506.394 1510.52 504.843C1510.52 503.292 1511.81 502 1513.37 502C1514.92 502 1516.21 503.292 1516.21 504.843C1516.21 506.394 1514.92 507.687 1513.37 507.687Z" fill="white"></path>
    <path d="M1513.37 524.487C1511.81 524.487 1510.52 523.195 1510.52 521.644C1510.52 520.093 1511.81 518.801 1513.37 518.801C1514.92 518.801 1516.21 520.093 1516.21 521.644C1516.21 523.195 1514.92 524.487 1513.37 524.487Z" fill="white"></path>
    <path d="M1513.37 541.288C1511.81 541.288 1510.52 539.996 1510.52 538.445C1510.52 536.894 1511.81 535.602 1513.37 535.602C1514.92 535.602 1516.21 536.894 1516.21 538.445C1516.21 539.996 1514.92 541.288 1513.37 541.288Z" fill="white"></path>
    <path d="M1513.37 557.96C1511.81 557.96 1510.52 556.668 1510.52 555.117C1510.52 553.566 1511.81 552.273 1513.37 552.273C1514.92 552.273 1516.21 553.566 1516.21 555.117C1516.21 556.668 1514.92 557.96 1513.37 557.96Z" fill="white"></path>
    <path d="M1530.06 507.687C1528.51 507.687 1527.21 506.394 1527.21 504.843C1527.21 503.292 1528.51 502 1530.06 502C1531.61 502 1532.91 503.292 1532.91 504.843C1533.03 506.394 1531.74 507.687 1530.06 507.687Z" fill="white"></path>
    <path d="M1530.06 524.487C1528.51 524.487 1527.21 523.195 1527.21 521.644C1527.21 520.093 1528.51 518.801 1530.06 518.801C1531.61 518.801 1532.91 520.093 1532.91 521.644C1533.03 523.195 1531.74 524.487 1530.06 524.487Z" fill="white"></path>
    <path d="M1530.06 541.288C1528.51 541.288 1527.21 539.996 1527.21 538.445C1527.21 536.894 1528.51 535.602 1530.06 535.602C1531.61 535.602 1532.91 536.894 1532.91 538.445C1533.03 539.996 1531.74 541.288 1530.06 541.288Z" fill="white"></path>
    <path d="M1530.06 557.96C1528.51 557.96 1527.21 556.668 1527.21 555.117C1527.21 553.566 1528.51 552.273 1530.06 552.273C1531.61 552.273 1532.91 553.566 1532.91 555.117C1532.91 556.668 1531.74 557.96 1530.06 557.96Z" fill="white"></path>
    <path d="M1547.93 575.755C1546.38 575.755 1545.09 574.462 1545.09 572.912C1545.09 571.361 1546.38 570.068 1547.93 570.068C1549.49 570.068 1550.78 571.361 1550.78 572.912C1550.78 574.462 1549.49 575.755 1547.93 575.755Z" fill="white"></path>
    <path d="M1547.93 592.558C1546.38 592.558 1545.09 591.265 1545.09 589.714C1545.09 588.163 1546.38 586.871 1547.93 586.871C1549.49 586.871 1550.78 588.163 1550.78 589.714C1550.78 591.265 1549.49 592.558 1547.93 592.558Z" fill="white"></path>
    <path d="M1547.93 609.356C1546.38 609.356 1545.09 608.064 1545.09 606.513C1545.09 604.962 1546.38 603.67 1547.93 603.67C1549.49 603.67 1550.78 604.962 1550.78 606.513C1550.78 608.064 1549.49 609.356 1547.93 609.356Z" fill="white"></path>
    <path d="M1547.93 626.03C1546.38 626.03 1545.09 624.738 1545.09 623.187C1545.09 621.636 1546.38 620.344 1547.93 620.344C1549.49 620.344 1550.78 621.636 1550.78 623.187C1550.78 624.738 1549.49 626.03 1547.93 626.03Z" fill="white"></path>
    <path d="M1564.63 575.755C1563.07 575.755 1561.78 574.462 1561.78 572.912C1561.78 571.361 1563.07 570.068 1564.63 570.068C1566.18 570.068 1567.47 571.361 1567.47 572.912C1567.47 574.462 1566.18 575.755 1564.63 575.755Z" fill="white"></path>
    <path d="M1564.63 592.558C1563.07 592.558 1561.78 591.265 1561.78 589.714C1561.78 588.163 1563.07 586.871 1564.63 586.871C1566.18 586.871 1567.47 588.163 1567.47 589.714C1567.47 591.265 1566.18 592.558 1564.63 592.558Z" fill="white"></path>
    <path d="M1564.63 609.356C1563.07 609.356 1561.78 608.064 1561.78 606.513C1561.78 604.962 1563.07 603.67 1564.63 603.67C1566.18 603.67 1567.47 604.962 1567.47 606.513C1567.47 608.064 1566.18 609.356 1564.63 609.356Z" fill="white"></path>
    <path d="M1564.63 626.03C1563.07 626.03 1561.78 624.738 1561.78 623.187C1561.78 621.636 1563.07 620.344 1564.63 620.344C1566.18 620.344 1567.47 621.636 1567.47 623.187C1567.47 624.738 1566.18 626.03 1564.63 626.03Z" fill="white"></path>
    <path d="M1581.45 575.755C1579.9 575.755 1578.6 574.462 1578.6 572.912C1578.6 571.361 1579.9 570.068 1581.45 570.068C1583 570.068 1584.3 571.361 1584.3 572.912C1584.3 574.462 1583 575.755 1581.45 575.755Z" fill="white"></path>
    <path d="M1581.45 592.558C1579.9 592.558 1578.6 591.265 1578.6 589.714C1578.6 588.163 1579.9 586.871 1581.45 586.871C1583 586.871 1584.3 588.163 1584.3 589.714C1584.3 591.265 1583 592.558 1581.45 592.558Z" fill="white"></path>
    <path d="M1581.45 609.356C1579.9 609.356 1578.6 608.064 1578.6 606.513C1578.6 604.962 1579.9 603.67 1581.45 603.67C1583 603.67 1584.3 604.962 1584.3 606.513C1584.3 608.064 1583 609.356 1581.45 609.356Z" fill="white"></path>
    <path d="M1581.45 626.03C1579.9 626.03 1578.6 624.738 1578.6 623.187C1578.6 621.636 1579.9 620.344 1581.45 620.344C1583 620.344 1584.3 621.636 1584.3 623.187C1584.3 624.738 1583 626.03 1581.45 626.03Z" fill="white"></path>
    <path d="M1598.14 575.755C1596.59 575.755 1595.3 574.462 1595.3 572.912C1595.3 571.361 1596.59 570.068 1598.14 570.068C1599.7 570.068 1600.99 571.361 1600.99 572.912C1601.12 574.462 1599.83 575.755 1598.14 575.755Z" fill="white"></path>
    <path d="M1598.14 592.558C1596.59 592.558 1595.3 591.265 1595.3 589.714C1595.3 588.163 1596.59 586.871 1598.14 586.871C1599.7 586.871 1600.99 588.163 1600.99 589.714C1601.12 591.265 1599.83 592.558 1598.14 592.558Z" fill="white"></path>
    <path d="M1598.14 609.356C1596.59 609.356 1595.3 608.064 1595.3 606.513C1595.3 604.962 1596.59 603.67 1598.14 603.67C1599.7 603.67 1600.99 604.962 1600.99 606.513C1601.12 608.064 1599.83 609.356 1598.14 609.356Z" fill="white"></path>
    <path d="M1598.14 626.03C1596.59 626.03 1595.3 624.738 1595.3 623.187C1595.3 621.636 1596.59 620.344 1598.14 620.344C1599.7 620.344 1600.99 621.636 1600.99 623.187C1600.99 624.738 1599.83 626.03 1598.14 626.03Z" fill="white"></path>
    <path d="M1479.85 575.755C1478.29 575.755 1477 574.462 1477 572.912C1477 571.361 1478.29 570.068 1479.85 570.068C1481.4 570.068 1482.69 571.361 1482.69 572.912C1482.69 574.462 1481.4 575.755 1479.85 575.755Z" fill="white"></path>
    <path d="M1479.85 592.558C1478.29 592.558 1477 591.265 1477 589.714C1477 588.163 1478.29 586.871 1479.85 586.871C1481.4 586.871 1482.69 588.163 1482.69 589.714C1482.69 591.265 1481.4 592.558 1479.85 592.558Z" fill="white"></path>
    <path d="M1479.85 609.356C1478.29 609.356 1477 608.064 1477 606.513C1477 604.962 1478.29 603.67 1479.85 603.67C1481.4 603.67 1482.69 604.962 1482.69 606.513C1482.69 608.064 1481.4 609.356 1479.85 609.356Z" fill="white"></path>
    <path d="M1479.85 626.03C1478.29 626.03 1477 624.738 1477 623.187C1477 621.636 1478.29 620.344 1479.85 620.344C1481.4 620.344 1482.69 621.636 1482.69 623.187C1482.69 624.738 1481.4 626.03 1479.85 626.03Z" fill="white"></path>
    <path d="M1496.54 575.755C1494.99 575.755 1493.69 574.462 1493.69 572.912C1493.69 571.361 1494.99 570.068 1496.54 570.068C1498.09 570.068 1499.39 571.361 1499.39 572.912C1499.39 574.462 1498.09 575.755 1496.54 575.755Z" fill="white"></path>
    <path d="M1496.54 592.558C1494.99 592.558 1493.69 591.265 1493.69 589.714C1493.69 588.163 1494.99 586.871 1496.54 586.871C1498.09 586.871 1499.39 588.163 1499.39 589.714C1499.39 591.265 1498.09 592.558 1496.54 592.558Z" fill="white"></path>
    <path d="M1496.54 609.356C1494.99 609.356 1493.69 608.064 1493.69 606.513C1493.69 604.962 1494.99 603.67 1496.54 603.67C1498.09 603.67 1499.39 604.962 1499.39 606.513C1499.39 608.064 1498.09 609.356 1496.54 609.356Z" fill="white"></path>
    <path d="M1496.54 626.03C1494.99 626.03 1493.69 624.738 1493.69 623.187C1493.69 621.636 1494.99 620.344 1496.54 620.344C1498.09 620.344 1499.39 621.636 1499.39 623.187C1499.39 624.738 1498.09 626.03 1496.54 626.03Z" fill="white"></path>
    <path d="M1513.37 575.755C1511.81 575.755 1510.52 574.462 1510.52 572.912C1510.52 571.361 1511.81 570.068 1513.37 570.068C1514.92 570.068 1516.21 571.361 1516.21 572.912C1516.21 574.462 1514.92 575.755 1513.37 575.755Z" fill="white"></path>
    <path d="M1513.37 592.558C1511.81 592.558 1510.52 591.265 1510.52 589.714C1510.52 588.163 1511.81 586.871 1513.37 586.871C1514.92 586.871 1516.21 588.163 1516.21 589.714C1516.21 591.265 1514.92 592.558 1513.37 592.558Z" fill="white"></path>
    <path d="M1513.37 609.356C1511.81 609.356 1510.52 608.064 1510.52 606.513C1510.52 604.962 1511.81 603.67 1513.37 603.67C1514.92 603.67 1516.21 604.962 1516.21 606.513C1516.21 608.064 1514.92 609.356 1513.37 609.356Z" fill="white"></path>
    <path d="M1513.37 626.03C1511.81 626.03 1510.52 624.738 1510.52 623.187C1510.52 621.636 1511.81 620.344 1513.37 620.344C1514.92 620.344 1516.21 621.636 1516.21 623.187C1516.21 624.738 1514.92 626.03 1513.37 626.03Z" fill="white"></path>
    <path d="M1530.06 575.755C1528.51 575.755 1527.21 574.462 1527.21 572.912C1527.21 571.361 1528.51 570.068 1530.06 570.068C1531.61 570.068 1532.91 571.361 1532.91 572.912C1533.03 574.462 1531.74 575.755 1530.06 575.755Z" fill="white"></path>
    <path d="M1530.06 592.558C1528.51 592.558 1527.21 591.265 1527.21 589.714C1527.21 588.163 1528.51 586.871 1530.06 586.871C1531.61 586.871 1532.91 588.163 1532.91 589.714C1533.03 591.265 1531.74 592.558 1530.06 592.558Z" fill="white"></path>
    <path d="M1530.06 609.356C1528.51 609.356 1527.21 608.064 1527.21 606.513C1527.21 604.962 1528.51 603.67 1530.06 603.67C1531.61 603.67 1532.91 604.962 1532.91 606.513C1533.03 608.064 1531.74 609.356 1530.06 609.356Z" fill="white"></path>
    <path d="M1530.06 626.03C1528.51 626.03 1527.21 624.738 1527.21 623.187C1527.21 621.636 1528.51 620.344 1530.06 620.344C1531.61 620.344 1532.91 621.636 1532.91 623.187C1532.91 624.738 1531.74 626.03 1530.06 626.03Z" fill="white"></path>
    <g style="mix-blend-mode:screen">
      <path d="M1540.13 366.826L1538.55 365.106L1811.79 68L1813.37 69.7202L1540.13 366.826Z" fill="url(#paint1_linear_3028_2932)"></path>
    </g>
    <g style="mix-blend-mode:screen" opacity="0.45">
      <path d="M27.2005 787.552L25.7148 785.937L282.301 507L283.787 508.615L27.2005 787.552Z" fill="url(#paint2_linear_3028_2932)"></path>
    </g>
    <g style="mix-blend-mode:screen">
      <path d="M1520.43 443.144L1518.85 441.424L1792.09 144.318L1793.67 146.039L1520.43 443.144Z" fill="url(#paint3_linear_3028_2932)"></path>
    </g>
    <g style="mix-blend-mode:screen" opacity="0.45">
      <path d="M8.48561 859.572L7 857.956L263.586 579.02L265.072 580.635L8.48561 859.572Z" fill="url(#paint4_linear_3028_2932)"></path>
    </g>
  </g>
  <defs>
    <linearGradient id="paint0_linear_3028_2932" x1="18" y1="827" x2="2454" y2="-195" gradientUnits="userSpaceOnUse">
      <stop stop-color="#CF1F25"></stop>
      <stop offset="0.463542" stop-color="#CF1F25"></stop>
      <stop offset="1" stop-color="#F46E31"></stop>
    </linearGradient>
    <linearGradient id="paint1_linear_3028_2932" x1="1538.55" y1="217.425" x2="1813.39" y2="217.425" gradientUnits="userSpaceOnUse">
      <stop></stop>
      <stop offset="0.109" stop-color="#060606"></stop>
      <stop offset="0.252" stop-color="#161616"></stop>
      <stop offset="0.4141" stop-color="#323232"></stop>
      <stop offset="0.5902" stop-color="#575757"></stop>
      <stop offset="0.7775" stop-color="#888888"></stop>
      <stop offset="0.9716" stop-color="#C3C3C3"></stop>
      <stop offset="1" stop-color="#CCCCCC"></stop>
    </linearGradient>
    <linearGradient id="paint2_linear_3028_2932" x1="25.7148" y1="647.287" x2="283.807" y2="647.287" gradientUnits="userSpaceOnUse">
      <stop></stop>
      <stop offset="0.109" stop-color="#060606"></stop>
      <stop offset="0.252" stop-color="#161616"></stop>
      <stop offset="0.4141" stop-color="#323232"></stop>
      <stop offset="0.5902" stop-color="#575757"></stop>
      <stop offset="0.7775" stop-color="#888888"></stop>
      <stop offset="0.9716" stop-color="#C3C3C3"></stop>
      <stop offset="1" stop-color="#CCCCCC"></stop>
    </linearGradient>
    <linearGradient id="paint3_linear_3028_2932" x1="1518.85" y1="293.743" x2="1793.69" y2="293.743" gradientUnits="userSpaceOnUse">
      <stop></stop>
      <stop offset="0.109" stop-color="#060606"></stop>
      <stop offset="0.252" stop-color="#161616"></stop>
      <stop offset="0.4141" stop-color="#323232"></stop>
      <stop offset="0.5902" stop-color="#575757"></stop>
      <stop offset="0.7775" stop-color="#888888"></stop>
      <stop offset="0.9716" stop-color="#C3C3C3"></stop>
      <stop offset="1" stop-color="#CCCCCC"></stop>
    </linearGradient>
    <linearGradient id="paint4_linear_3028_2932" x1="7" y1="719.307" x2="265.092" y2="719.307" gradientUnits="userSpaceOnUse">
      <stop></stop>
      <stop offset="0.109" stop-color="#060606"></stop>
      <stop offset="0.252" stop-color="#161616"></stop>
      <stop offset="0.4141" stop-color="#323232"></stop>
      <stop offset="0.5902" stop-color="#575757"></stop>
      <stop offset="0.7775" stop-color="#888888"></stop>
      <stop offset="0.9716" stop-color="#C3C3C3"></stop>
      <stop offset="1" stop-color="#CCCCCC"></stop>
    </linearGradient>
    <clipPath id="clip0_3028_2932">
      <rect width="1920" height="838" fill="white"></rect>
    </clipPath>
  </defs>
</svg>
