<?xml version="1.0" encoding="UTF-8"?>
<svg xmlns="http://www.w3.org/2000/svg" width="1920" height="741" viewBox="0 0 1920 741" fill="none">
  <g clip-path="url(#clip0_2984_2087)">
    <rect width="1920" height="741" fill="#F9FAFD"></rect>
    <path d="M905.754 713.758C563.208 774.476 158.613 719.679 -0.866804 684.691L-27 0H1935V733.136C1685.73 655.624 1333.94 637.861 905.754 713.758Z" fill="#04A39C"></path>
    <path d="M1138 249H969C958.507 249 950 257.507 950 268V414C950 424.493 958.507 433 969 433H1138C1148.49 433 1157 424.493 1157 414V268C1157 257.507 1148.49 249 1138 249Z" fill="#04A39C"></path>
    <path d="M-9 310.875C-5.77506 299.094 7.73566 293.264 19.9043 292.471C32.0729 291.678 44.4619 294.227 56.4002 291.738C68.3385 289.25 80.2468 279.004 78.4039 266.922C77.0218 257.92 68.8493 251.809 61.448 246.52C48.1175 236.987 34.5768 226.039 28.9982 210.615C23.4197 195.191 29.529 174.439 45.2531 169.873C55.3987 166.923 66.025 171.238 76.3508 173.445C86.6866 175.653 99.7166 174.499 104.594 165.106C108.53 157.53 105.185 148.448 103.773 140.029C99.4261 114.108 115.781 89.4723 137.084 76.2762C163.054 60.1901 194.912 61.9663 224.037 66.773C249.626 70.9978 274.895 77.8718 300.795 79.2064C314.456 79.9089 329.118 78.7348 339.985 70.4158C363.531 52.3628 330.18 11.2593 363 0H-9V310.875Z" fill="#00B5AD"></path>
    <path d="M1437 525L1430 537.5H1443.5L1437 525Z" fill="white"></path>
    <path d="M1465 525L1458 537.5H1471.5L1465 525Z" fill="white"></path>
    <path d="M1493 525L1486 537.5H1499.5L1493 525Z" fill="white"></path>
    <path d="M1521 525L1514 537.5H1527.5L1521 525Z" fill="white"></path>
    <path d="M1549 525L1542 537.5H1555.5L1549 525Z" fill="white"></path>
    <path d="M1437 549.5L1430 562H1443.5L1437 549.5Z" fill="white"></path>
    <path d="M1465 549.5L1458 562H1471.5L1465 549.5Z" fill="white"></path>
    <path d="M1493 549.5L1486 562H1499.5L1493 549.5Z" fill="white"></path>
    <path d="M1521 549.5L1514 562H1527.5L1521 549.5Z" fill="white"></path>
    <path d="M1549 549.5L1542 562H1555.5L1549 549.5Z" fill="white"></path>
    <path d="M1437 573L1430 585.5H1443.5L1437 573Z" fill="white"></path>
    <path d="M1465 573L1458 585.5H1471.5L1465 573Z" fill="white"></path>
    <path d="M1493 573L1486 585.5H1499.5L1493 573Z" fill="white"></path>
    <path d="M1521 573L1514 585.5H1527.5L1521 573Z" fill="white"></path>
    <path d="M1549 573L1542 585.5H1555.5L1549 573Z" fill="white"></path>
    <path d="M1437 597.5L1430 610H1443.5L1437 597.5Z" fill="white"></path>
    <path d="M1465 597.5L1458 610H1471.5L1465 597.5Z" fill="white"></path>
    <path d="M1493 597.5L1486 610H1499.5L1493 597.5Z" fill="white"></path>
    <path d="M1521 597.5L1514 610H1527.5L1521 597.5Z" fill="white"></path>
    <path d="M1549 597.5L1542 610H1555.5L1549 597.5Z" fill="white"></path>
    <path d="M72.5774 75.2951C72.5774 76.5575 71.5475 77.5903 70.2887 77.5903C69.0299 77.5903 68 76.5575 68 75.2951C68 74.0328 69.0299 73 70.2887 73C71.5618 73 72.5774 74.0328 72.5774 75.2951Z" fill="white"></path>
    <path d="M99.9703 75.2951C99.9703 76.5575 98.9404 77.5903 97.6816 77.5903C96.4228 77.5903 95.3929 76.5575 95.3929 75.2951C95.3929 74.0328 96.4085 73 97.6816 73C98.9547 73 99.9703 74.0328 99.9703 75.2951Z" fill="white"></path>
    <path d="M127.363 75.2951C127.363 76.5575 126.333 77.5903 125.075 77.5903C123.816 77.5903 122.786 76.5575 122.786 75.2951C122.786 74.0328 123.802 73 125.075 73C126.348 73 127.363 74.0328 127.363 75.2951Z" fill="white"></path>
    <path d="M152.482 77.5903C153.746 77.5903 154.771 76.5627 154.771 75.2951C154.771 74.0275 153.746 73 152.482 73C151.218 73 150.193 74.0275 150.193 75.2951C150.193 76.5627 151.218 77.5903 152.482 77.5903Z" fill="white"></path>
    <path d="M182.163 75.2951C182.163 76.5575 181.134 77.5903 179.875 77.5903C178.616 77.5903 177.586 76.5575 177.586 75.2951C177.586 74.0328 178.602 73 179.875 73C181.134 73 182.163 74.0328 182.163 75.2951Z" fill="white"></path>
    <path d="M209.556 75.2951C209.556 76.5575 208.541 77.5903 207.268 77.5903C206.009 77.5903 204.979 76.5575 204.979 75.2951C204.979 74.0328 206.009 73 207.268 73C208.526 73 209.556 74.0328 209.556 75.2951Z" fill="white"></path>
    <path d="M234.661 77.5903C235.925 77.5903 236.949 76.5627 236.949 75.2951C236.949 74.0275 235.925 73 234.661 73C233.397 73 232.372 74.0275 232.372 75.2951C232.372 76.5627 233.397 77.5903 234.661 77.5903Z" fill="white"></path>
    <path d="M264.342 75.2951C264.342 76.5575 263.327 77.5903 262.054 77.5903C260.795 77.5903 259.765 76.5575 259.765 75.2951C259.765 74.0328 260.795 73 262.054 73C263.312 73 264.342 74.0328 264.342 75.2951Z" fill="white"></path>
    <path d="M72.5774 102.766C72.5774 104.028 71.5475 105.061 70.2887 105.061C69.0299 105.061 68 104.028 68 102.766C68 101.504 69.0299 100.471 70.2887 100.471C71.5618 100.471 72.5774 101.504 72.5774 102.766Z" fill="white"></path>
    <path d="M99.9703 102.766C99.9703 104.028 98.9404 105.061 97.6816 105.061C96.4228 105.061 95.3929 104.028 95.3929 102.766C95.3929 101.504 96.4085 100.471 97.6816 100.471C98.9547 100.471 99.9703 101.504 99.9703 102.766Z" fill="white"></path>
    <path d="M127.363 102.766C127.363 104.028 126.333 105.061 125.075 105.061C123.816 105.061 122.786 104.028 122.786 102.766C122.786 101.504 123.802 100.471 125.075 100.471C126.348 100.471 127.363 101.504 127.363 102.766Z" fill="white"></path>
    <path d="M154.771 102.766C154.771 104.028 153.741 105.061 152.482 105.061C151.223 105.061 150.193 104.028 150.193 102.766C150.193 101.504 151.223 100.471 152.482 100.471C153.741 100.471 154.771 101.504 154.771 102.766Z" fill="white"></path>
    <path d="M182.163 102.766C182.163 104.028 181.134 105.061 179.875 105.061C178.616 105.061 177.586 104.028 177.586 102.766C177.586 101.504 178.602 100.471 179.875 100.471C181.134 100.471 182.163 101.504 182.163 102.766Z" fill="white"></path>
    <path d="M209.556 102.766C209.556 104.028 208.541 105.061 207.268 105.061C206.009 105.061 204.979 104.028 204.979 102.766C204.979 101.504 206.009 100.471 207.268 100.471C208.526 100.471 209.556 101.504 209.556 102.766Z" fill="white"></path>
    <path d="M236.949 102.766C236.949 104.028 235.919 105.061 234.661 105.061C233.402 105.061 232.372 104.028 232.372 102.766C232.372 101.504 233.402 100.471 234.661 100.471C235.919 100.471 236.949 101.504 236.949 102.766Z" fill="white"></path>
    <path d="M264.342 102.766C264.342 104.028 263.327 105.061 262.054 105.061C260.795 105.061 259.765 104.028 259.765 102.766C259.765 101.504 260.795 100.471 262.054 100.471C263.312 100.471 264.342 101.504 264.342 102.766Z" fill="white"></path>
    <path d="M72.5774 130.235C72.5774 131.497 71.5475 132.53 70.2887 132.53C69.0299 132.53 68 131.511 68 130.235C68 128.972 69.0299 127.939 70.2887 127.939C71.5618 127.939 72.5774 128.972 72.5774 130.235Z" fill="white"></path>
    <path d="M99.9703 130.235C99.9703 131.497 98.9404 132.53 97.6816 132.53C96.4228 132.53 95.3929 131.511 95.3929 130.235C95.3929 128.972 96.4085 127.939 97.6816 127.939C98.9547 127.939 99.9703 128.972 99.9703 130.235Z" fill="white"></path>
    <path d="M127.363 130.235C127.363 131.497 126.333 132.53 125.075 132.53C123.816 132.53 122.786 131.511 122.786 130.235C122.786 128.972 123.802 127.939 125.075 127.939C126.348 127.939 127.363 128.972 127.363 130.235Z" fill="white"></path>
    <path d="M154.771 130.235C154.771 131.497 153.741 132.53 152.482 132.53C151.223 132.53 150.193 131.511 150.193 130.235C150.193 128.972 151.223 127.939 152.482 127.939C153.741 127.939 154.771 128.972 154.771 130.235Z" fill="white"></path>
    <path d="M182.163 130.235C182.163 131.497 181.134 132.53 179.875 132.53C178.616 132.53 177.586 131.511 177.586 130.235C177.586 128.972 178.602 127.939 179.875 127.939C181.134 127.939 182.163 128.972 182.163 130.235Z" fill="white"></path>
    <path d="M209.556 130.235C209.556 131.497 208.541 132.53 207.268 132.53C206.009 132.53 204.979 131.511 204.979 130.235C204.979 128.972 206.009 127.939 207.268 127.939C208.526 127.939 209.556 128.972 209.556 130.235Z" fill="white"></path>
    <path d="M236.949 130.235C236.949 131.497 235.919 132.53 234.661 132.53C233.402 132.53 232.372 131.511 232.372 130.235C232.372 128.972 233.402 127.939 234.661 127.939C235.919 127.939 236.949 128.972 236.949 130.235Z" fill="white"></path>
    <path d="M264.342 130.235C264.342 131.497 263.327 132.53 262.054 132.53C260.795 132.53 259.765 131.511 259.765 130.235C259.765 128.972 260.795 127.939 262.054 127.939C263.312 127.939 264.342 128.972 264.342 130.235Z" fill="white"></path>
    <path d="M72.5774 157.703C72.5774 158.966 71.5475 159.999 70.2887 159.999C69.0299 159.999 68 158.966 68 157.703C68 156.441 69.0299 155.408 70.2887 155.408C71.5618 155.423 72.5774 156.441 72.5774 157.703Z" fill="white"></path>
    <path d="M99.9703 157.703C99.9703 158.966 98.9404 159.999 97.6816 159.999C96.4228 159.999 95.3929 158.966 95.3929 157.703C95.3929 156.441 96.4085 155.408 97.6816 155.408C98.9547 155.423 99.9703 156.441 99.9703 157.703Z" fill="white"></path>
    <path d="M127.363 157.703C127.363 158.966 126.333 159.999 125.075 159.999C123.816 159.999 122.786 158.966 122.786 157.703C122.786 156.441 123.802 155.408 125.075 155.408C126.348 155.423 127.363 156.441 127.363 157.703Z" fill="white"></path>
    <path d="M152.482 159.999C153.746 159.999 154.771 158.971 154.771 157.703C154.771 156.436 153.746 155.408 152.482 155.408C151.218 155.408 150.193 156.436 150.193 157.703C150.193 158.971 151.218 159.999 152.482 159.999Z" fill="white"></path>
    <path d="M182.163 157.703C182.163 158.966 181.134 159.999 179.875 159.999C178.616 159.999 177.586 158.966 177.586 157.703C177.586 156.441 178.602 155.408 179.875 155.408C181.134 155.423 182.163 156.441 182.163 157.703Z" fill="white"></path>
    <path d="M209.556 157.703C209.556 158.966 208.541 159.999 207.268 159.999C206.009 159.999 204.979 158.966 204.979 157.703C204.979 156.441 206.009 155.408 207.268 155.408C208.526 155.423 209.556 156.441 209.556 157.703Z" fill="white"></path>
    <path d="M234.661 159.999C235.925 159.999 236.949 158.971 236.949 157.703C236.949 156.436 235.925 155.408 234.661 155.408C233.397 155.408 232.372 156.436 232.372 157.703C232.372 158.971 233.397 159.999 234.661 159.999Z" fill="white"></path>
    <path d="M264.342 157.703C264.342 158.966 263.327 159.999 262.054 159.999C260.795 159.999 259.765 158.966 259.765 157.703C259.765 156.441 260.795 155.408 262.054 155.408C263.312 155.423 264.342 156.441 264.342 157.703Z" fill="white"></path>
  </g>
  <defs>
    <clipPath id="clip0_2984_2087">
      <rect width="1920" height="741" fill="white"></rect>
    </clipPath>
  </defs>
</svg>
