<?xml version="1.0" encoding="UTF-8"?>
<svg xmlns="http://www.w3.org/2000/svg" width="64" height="53" viewBox="0 0 64 53" fill="none">
  <path d="M63.5754 30.3598C61.9903 19.3565 56.8669 9.24619 48.2335 0L43.9027 3.3125C49.0827 8.90054 51.7718 13.8837 51.9133 18.262C51.7718 20.7679 49.9602 22.525 46.5069 23.5331C45.4878 23.8212 44.4122 24.1956 43.2517 24.6277C37.6187 27.2777 34.8165 31.7424 34.8165 38.0505C34.8165 40.3837 35.326 42.6016 36.3167 44.6467C38.9208 50.2348 43.0818 53 48.8563 53C50.866 53 52.7625 52.6255 54.4892 51.9054C60.8297 49.5723 64 44.0707 64 35.4006C64 33.8163 63.8585 32.1169 63.5754 30.3598ZM28.759 30.3598C27.1738 19.3565 22.0504 9.24619 13.4171 0L9.08624 3.3125C14.2663 8.90054 16.9553 13.8837 17.0969 18.262C16.9553 20.7679 15.1437 22.525 11.6904 23.5331C10.6714 23.8212 9.59576 24.1956 8.43522 24.6277C2.80231 27.2777 3.8147e-06 31.7424 3.8147e-06 38.0505C3.8147e-06 40.3837 0.509506 42.6016 1.50022 44.6467C4.10438 50.2348 8.26537 53 14.0398 53C16.0495 53 17.9177 52.6255 19.6727 51.9054C26.0133 49.5723 29.1835 44.0707 29.1835 35.4006C29.2118 33.8163 29.0703 32.1169 28.759 30.3598Z" fill="#A8DFDB"></path>
</svg>
